<?xml version="1.0" encoding="UTF-8"?>
<svg id="Capa_2" data-name="Capa 2" xmlns="http://www.w3.org/2000/svg" viewBox="0 0 993.17 502.51">
  <defs>
    <style>
      .cls-1 {
        fill: #0f343c;
      }

      .cls-2 {
        fill: #050006;
      }

      .cls-3 {
        fill: #e8f1df;
      }
    </style>
  </defs>
  <g id="Capa_1-2" data-name="Capa 1">
    <path class="cls-1" d="M27.55,27.94c-.41-.28-.72-.48-.89-.65-.48-.48-1.27-.48-1.75,0-.49.48-.49,1.27,0,1.75.24.24.67.55,1.24.94,1.73,1.19,4.83,3.31,7.59,8.06.42-.24.78-.52,1.09-.83.27-.27.52-.59.75-.95-2.95-4.84-6.2-7.07-8.03-8.32M27.55,27.94c-.41-.28-.72-.48-.89-.65-.48-.48-1.27-.48-1.75,0-.49.48-.49,1.27,0,1.75.24.24.67.55,1.24.94,1.73,1.19,4.83,3.31,7.59,8.06.42-.24.78-.52,1.09-.83.27-.27.52-.59.75-.95-2.95-4.84-6.2-7.07-8.03-8.32M36.59,22.33c-4.77-4.77-14.11-5.34-20.72-5.34-.68,0-1.24.55-1.24,1.24-.01,6.61.54,15.95,5.31,20.73,2.02,2.01,5.1,2.92,8.16,2.92,2.48,0,4.94-.59,6.8-1.65.64-.37,1.2-.79,1.68-1.26.1-.11.21-.21.31-.33,3.28-3.75,3.78-12.22-.3-16.31M35.58,36.26c-2.95-4.84-6.2-7.07-8.03-8.32-.41-.28-.72-.48-.89-.65-.48-.48-1.27-.48-1.75,0-.49.48-.49,1.27,0,1.75.24.24.67.55,1.24.94,1.73,1.19,4.83,3.31,7.59,8.06-3.2,1.88-9.29,1.92-12.04-.84-3.85-3.85-4.51-11.68-4.58-17.72,6.04.08,13.87.75,17.72,4.6,2.78,2.79,2.7,9.01.74,12.18M85.64,28.39l-4.45-6.68c-1.93-2.9-5.17-4.64-8.65-4.64h-18.43v-3.73c0-5.74-4.65-10.4-10.39-10.41l-33.28-.03C4.7,2.91.04,7.56.03,13.3l-.03,41.6c0,5.74,4.65,10.39,10.39,10.4h.21c-.11-.68-.18-1.38-.2-2.08.02-.69.09-1.39.21-2.07h-.21c-3.45-.01-6.24-2.81-6.24-6.25l.03-41.6c.01-3.44,2.8-6.23,6.25-6.24l33.28.03c3.44.01,6.23,2.8,6.23,6.24l-.03,47.84h-6.45c.11.69.18,1.38.21,2.08-.03.7-.1,1.39-.22,2.08h8.53c1.15.01,2.08-.92,2.09-2.07v-22.88s29.13.02,29.13.02v14.56c-.01.12-.04.24-.04.36,1.02,1.88,1.67,3.93,1.91,6.05,1.47-1.82,2.27-4.08,2.28-6.41l.02-20.8c0-2.05-.6-4.06-1.74-5.77M83.22,36.24l-29.12-.02v-15s18.43.01,18.43.01c2.09,0,4.04,1.05,5.19,2.79l4.45,6.68c.69,1.02,1.05,2.23,1.05,3.46v2.08ZM68.64,52.87c-5.74-.01-10.4,4.65-10.4,10.39-.01,5.74,4.64,10.4,10.39,10.41,5.74,0,10.39-4.65,10.41-10.39,0-5.75-4.65-10.41-10.4-10.41M68.63,69.51c-3.44-.01-6.23-2.8-6.23-6.25s2.79-6.23,6.24-6.23,6.24,2.8,6.24,6.24c-.01,3.45-2.8,6.24-6.25,6.24M27.04,52.84c-5.74-.01-10.4,4.65-10.4,10.39,0,2.87,1.16,5.47,3.04,7.35,1.88,1.89,4.48,3.06,7.35,3.06,5.74,0,10.4-4.65,10.41-10.39,0-5.75-4.65-10.41-10.4-10.41M27.03,69.48c-3.45-.01-6.24-2.8-6.23-6.25,0-3.44,2.8-6.23,6.24-6.23s6.24,2.8,6.24,6.24c-.01,3.45-2.8,6.24-6.25,6.24"/>
    <path class="cls-3" d="M24.91,27.29c-.49.48-.49,1.27,0,1.75.24.24.67.55,1.24.94,1.73,1.19,4.83,3.31,7.59,8.06-3.2,1.88-9.29,1.92-12.04-.84-3.85-3.85-4.51-11.68-4.58-17.72,6.04.08,13.87.75,17.72,4.6,2.78,2.79,2.7,9.01.74,12.18-2.95-4.84-6.2-7.07-8.03-8.32-.41-.28-.72-.48-.89-.65-.48-.48-1.27-.48-1.75,0"/>
    <path class="cls-1" d="M388.47,63.27c0-5.74-4.65-10.4-10.39-10.41-5.74,0-10.4,4.65-10.41,10.39,0,5.74,4.65,10.4,10.39,10.41,5.74,0,10.4-4.65,10.41-10.39M371.83,63.26c0-3.45,2.8-6.24,6.24-6.23,3.45,0,6.24,2.8,6.24,6.24,0,3.45-2.8,6.24-6.24,6.23-3.45,0-6.23-2.8-6.23-6.24M309.44,46.57c0-1.15.93-2.08,2.08-2.08h6.24s0-6.23,0-6.23h4.16s0,6.24,0,6.24h6.24c1.15,0,2.08.94,2.08,2.09,0,1.15-.93,2.08-2.08,2.08h-16.64c-1.15-.01-2.08-.94-2.08-2.09h0ZM321.94,21.62v6.24s14.55.01,14.55.01c1.15,0,2.08.93,2.08,2.08,0,1.15-.93,2.08-2.08,2.08l-24.96-.02c-1.15,0-2.08-.93-2.08-2.08,0-1.15.93-2.08,2.08-2.08h6.24s0-6.24,0-6.24h4.16ZM328.36,61.15c-.11.69-.18,1.38-.21,2.08.03.7.09,1.39.21,2.08h-.21c-5.74-.01-10.39-4.67-10.39-10.41h4.16c0,3.45,2.79,6.24,6.23,6.25h.21ZM390.62,21.71c-1.92-2.9-5.17-4.64-8.65-4.64h-18.43s0-3.73,0-3.73c0-5.74-4.65-10.4-10.39-10.41l-24.96-.02c-4.94,0-9.2,3.47-10.2,8.31h-6.45c-1.15,0-2.08.92-2.08,2.07,0,1.15.93,2.08,2.08,2.08l33.28.03c1.15,0,2.08-.93,2.08-2.08,0-1.15-.93-2.08-2.08-2.08l-22.5-.02c.88-2.48,3.22-4.15,5.86-4.15l24.96.02c3.44,0,6.23,2.8,6.23,6.24l-.04,47.84h-4.37c-1.15-5.63-6.64-9.27-12.26-8.12-5.63,1.14-9.26,6.64-8.12,12.26,1.14,5.63,6.64,9.26,12.26,8.12,4.09-.83,7.28-4.02,8.12-8.1h6.45c1.15,0,2.08-.92,2.08-2.07h0s.02-22.88.02-22.88l29.12.02v14.56c-.01.12-.04.24-.05.36,1.03,1.87,1.68,3.93,1.92,6.05,1.46-1.82,2.27-4.08,2.28-6.41l.02-20.8c0-2.05-.6-4.06-1.74-5.77l-4.45-6.68ZM344.78,69.48c-3.45,0-6.24-2.8-6.23-6.24,0-3.45,2.8-6.24,6.24-6.24,3.45,0,6.24,2.8,6.24,6.24,0,3.45-2.8,6.23-6.24,6.24M392.65,36.24l-29.12-.02v-15s18.44.01,18.44.01c2.09,0,4.03,1.04,5.19,2.78l4.45,6.68c.68,1.03,1.05,2.23,1.05,3.46v2.08Z"/>
    <path class="cls-1" d="M80.39,167.1c-1.92-1.41-2.83-3.82-2.32-6.15,1.31-7.76-3.91-15.11-11.67-16.42-1.56-.26-3.16-.26-4.73,0-2.33.51-4.74-.41-6.14-2.33-4.39-6.53-13.24-8.26-19.76-3.88-1.53,1.02-2.84,2.33-3.86,3.86-1.41,1.92-3.82,2.83-6.15,2.32-7.75-1.31-15.11,3.91-16.42,11.67-.26,1.56-.27,3.16,0,4.73.5,2.33-.41,4.74-2.33,6.15-6.53,4.39-8.26,13.24-3.88,19.77,1.02,1.52,2.33,2.84,3.86,3.86,1.92,1.41,2.83,3.82,2.32,6.15-1.31,7.76,3.91,15.11,11.67,16.42,1.57.27,3.16.27,4.73,0,2.33-.5,4.73.41,6.14,2.33,4.39,6.53,13.24,8.26,19.76,3.88,1.53-1.02,2.84-2.34,3.86-3.86,1.41-1.92,3.82-2.83,6.15-2.32,7.75,1.31,15.1-3.91,16.42-11.66.27-1.57.27-3.17,0-4.73-.5-2.33.41-4.74,2.33-6.15,6.53-4.39,8.26-13.24,3.87-19.77-1.02-1.52-2.33-2.84-3.86-3.86ZM78.09,187.34c-3.26,2.3-4.86,6.3-4.08,10.21.93,5.53-2.8,10.76-8.33,11.69-1.12.19-2.26.19-3.38,0-3.91-.74-7.89.84-10.22,4.07-3.13,4.65-9.44,5.88-14.09,2.75-1.09-.73-2.02-1.67-2.76-2.76-1.91-2.71-5.04-4.29-8.35-4.23-.62,0-1.24.05-1.86.15-5.53.93-10.76-2.8-11.69-8.33-.19-1.12-.19-2.26,0-3.38.78-3.91-.81-7.91-4.07-10.22-4.65-3.13-5.88-9.44-2.75-14.09.73-1.09,1.67-2.02,2.76-2.76,3.23-2.32,4.83-6.3,4.08-10.21-.93-5.53,2.8-10.76,8.33-11.69,1.12-.19,2.26-.19,3.38,0,3.91.75,7.89-.84,10.22-4.07,3.13-4.65,9.44-5.88,14.09-2.75,1.09.73,2.02,1.67,2.76,2.76,2.32,3.23,6.3,4.83,10.21,4.08,5.53-.93,10.76,2.8,11.69,8.33.19,1.12.19,2.26,0,3.38-.75,3.91.84,7.89,4.07,10.21h0c4.65,3.13,5.88,9.44,2.75,14.09-.73,1.09-1.67,2.02-2.76,2.76M60.05,191.18c0,2.26-1.84,4.09-4.1,4.09-2.26,0-4.09-1.84-4.09-4.1,0-2.26,1.84-4.09,4.1-4.09s4.09,1.84,4.09,4.1M27.32,166.6c0-2.26,1.84-4.09,4.1-4.09,2.26,0,4.09,1.84,4.09,4.1,0,2.26-1.84,4.09-4.1,4.09-2.26,0-4.09-1.84-4.09-4.1M61.52,161.08c.8.8.8,2.09,0,2.89l-32.77,32.73c-.81.78-2.11.76-2.89-.05-.77-.79-.77-2.05,0-2.84l32.77-32.72c.8-.8,2.09-.8,2.89,0h0Z"/>
    <path class="cls-1" d="M234.73,167.29c-1.89-1.39-2.78-3.76-2.28-6.05,1.29-7.63-3.85-14.86-11.48-16.15-1.54-.26-3.11-.26-4.65,0-2.29.49-4.66-.41-6.05-2.3-4.32-6.42-13.03-8.13-19.45-3.81-1.5,1.01-2.79,2.3-3.8,3.79-1.39,1.88-3.76,2.78-6.05,2.28-7.63-1.29-14.86,3.85-16.15,11.47-.26,1.54-.26,3.11,0,4.66.49,2.29-.41,4.66-2.29,6.05-6.42,4.32-8.13,13.02-3.81,19.44,1.01,1.5,2.3,2.79,3.8,3.8,1.89,1.39,2.78,3.76,2.28,6.05-1.29,7.63,3.85,14.86,11.48,16.15,1.54.26,3.11.26,4.65,0,2.29-.49,4.66.41,6.05,2.3,4.32,6.42,13.03,8.13,19.45,3.8,1.5-1.01,2.79-2.29,3.8-3.79,1.39-1.88,3.76-2.78,6.05-2.28,7.63,1.29,14.86-3.85,16.15-11.48.26-1.54.26-3.11,0-4.66-.49-2.29.4-4.66,2.29-6.05,6.42-4.32,8.13-13.02,3.81-19.45-1.01-1.5-2.3-2.79-3.8-3.8h0ZM232.47,187.2c-3.21,2.26-4.78,6.2-4.02,10.04.91,5.44-2.75,10.59-8.19,11.5-1.1.18-2.23.18-3.33,0-3.85-.77-7.78.8-10.05,4-3.08,4.58-9.29,5.79-13.86,2.7-1.07-.72-1.99-1.64-2.71-2.71-1.85-2.67-4.91-4.24-8.16-4.18-.63,0-1.27.05-1.89.16-5.44.91-10.59-2.76-11.5-8.2-.18-1.1-.18-2.22,0-3.32.77-3.85-.8-7.79-4-10.05-4.58-3.08-5.79-9.29-2.7-13.86.72-1.07,1.64-1.99,2.71-2.71,3.21-2.26,4.78-6.2,4.02-10.04-.91-5.44,2.75-10.59,8.19-11.5,1.1-.19,2.23-.18,3.33,0,3.85.77,7.79-.8,10.05-4,3.08-4.58,9.29-5.78,13.86-2.7,1.07.72,1.99,1.64,2.71,2.71,2.26,3.21,6.2,4.79,10.05,4.02,5.44-.91,10.59,2.76,11.5,8.2.18,1.1.18,2.22,0,3.32-.77,3.85.8,7.79,4,10.05,4.58,3.08,5.78,9.29,2.7,13.87-.72,1.07-1.64,1.99-2.71,2.71ZM212.71,185.95c-.01,5-4.07,9.05-9.07,9.06h-3.02s0,4.03,0,4.03c0,1.11-.9,2.01-2.02,2.01-1.11,0-2.01-.9-2.01-2.02v-4.03s-8.05,0-8.05,0c-1.11,0-2.01-.9-2.01-2.02,0-1.11.9-2.01,2.01-2.01h15.11c2.78.01,5.04-2.24,5.04-5.02s-2.25-5.04-5.03-5.04h-10.07c-5.01-.01-9.06-4.07-9.06-9.08,0-5.01,4.06-9.06,9.07-9.06h3.02s0-4.03,0-4.03c0-1.11.9-2.01,2.02-2.01,1.11,0,2.01.9,2.01,2.01v4.03s8.05,0,8.05,0c1.11,0,2.01.9,2.01,2.02,0,1.11-.9,2.01-2.02,2.01h-15.1c-2.78-.01-5.04,2.24-5.04,5.02,0,2.78,2.25,5.04,5.03,5.04h10.07c5,.02,9.05,4.07,9.06,9.08"/>
    <path class="cls-1" d="M353.18,136.6l-32.22-.03c-5.56,0-10.07,4.51-10.08,10.06l-.05,64.45c.01,5.56,4.51,10.07,10.07,10.08h11.17c-.71-1.24-1.19-2.61-1.42-4.02h-9.75c-3.34-.02-6.04-2.72-6.04-6.06l.05-64.44c.01-3.34,2.71-6.04,6.05-6.04h5.03l1.91,3.82c.68,1.37,2.07,2.23,3.6,2.23h11.13c1.53.01,2.92-.85,3.6-2.22l1.91-3.81h5.04c3.33.01,6.04,2.72,6.04,6.05l-.02,16.11h4.03s.01-16.11.01-16.11c0-5.56-4.5-10.06-10.06-10.07M378.04,180.92c-1.11,0-2.01.9-2.01,2.01-.01,5.57-4.52,10.07-10.08,10.07-5.56-.01-10.07-4.52-10.06-10.08,0-1.11-.9-2.02-2.02-2.02-.56,0-1.06.22-1.42.59-.36.37-.59.87-.59,1.43-.01,7.78,6.3,14.1,14.09,14.1,7.78.01,14.1-6.3,14.11-14.08,0-1.12-.9-2.02-2.02-2.02M378.04,180.92c-1.11,0-2.01.9-2.01,2.01-.01,5.57-4.52,10.07-10.08,10.07-5.56-.01-10.07-4.52-10.06-10.08,0-1.11-.9-2.02-2.02-2.02-.56,0-1.06.22-1.42.59-.36.37-.59.87-.59,1.43-.01,7.78,6.3,14.1,14.09,14.1,7.78.01,14.1-6.3,14.11-14.08,0-1.12-.9-2.02-2.02-2.02M395.33,214.18l-6.12-36.92c-.79-4.86-5-8.43-9.93-8.42l-26.63-.02c-4.92-.02-9.13,3.54-9.94,8.41l-6.17,36.9c-.56,3.29,1.66,6.41,4.96,6.96.32.06.66.08.99.08l46.88.04c3.34,0,6.04-2.7,6.05-6.04,0-.33-.03-.66-.09-.99M390.91,216.47c-.38.45-.94.72-1.54.71l-46.88-.03c-1.11,0-2.01-.9-2.01-2.01,0-.12.01-.23.03-.34l6.18-36.91c.48-2.92,3-5.05,5.96-5.04l26.63.02c2.96-.01,5.48,2.13,5.96,5.05l6.12,36.92c.1.58-.06,1.18-.45,1.63M378.04,180.92c-1.11,0-2.01.9-2.01,2.01-.01,5.57-4.52,10.07-10.08,10.07-5.56-.01-10.07-4.52-10.06-10.08,0-1.11-.9-2.02-2.02-2.02-.56,0-1.06.22-1.42.59-.36.37-.59.87-.59,1.43-.01,7.78,6.3,14.1,14.09,14.1,7.78.01,14.1-6.3,14.11-14.08,0-1.12-.9-2.02-2.02-2.02"/>
    <path class="cls-3" d="M391.36,214.84l-6.12-36.92c-.48-2.92-3-5.06-5.96-5.05l-26.63-.02c-2.96-.01-5.48,2.12-5.96,5.04l-6.18,36.91c-.02.11-.03.22-.03.34,0,1.11.9,2.01,2.01,2.01l46.88.03c.6.01,1.16-.26,1.54-.71.39-.45.55-1.05.45-1.63M365.95,197.02c-7.79,0-14.1-6.32-14.09-14.1,0-.56.23-1.06.59-1.43.36-.37.86-.59,1.42-.59,1.12,0,2.02.91,2.02,2.02-.01,5.56,4.5,10.07,10.06,10.08,5.56,0,10.07-4.5,10.08-10.07,0-1.11.9-2.01,2.01-2.01s2.02.9,2.02,2.02c-.01,7.78-6.33,14.09-14.11,14.08"/>
    <path class="cls-1" d="M491.3,143.36c0,1.09-.88,1.97-1.97,1.97h-13.82s-.01,13.8-.01,13.8c0,1.09-.88,1.97-1.97,1.97-1.09,0-1.97-.89-1.97-1.98v-15.79c.01-1.09.9-1.97,1.98-1.97h15.79c1.09.01,1.97.9,1.97,1.98h0ZM546.55,143.4c0-1.09-.88-1.97-1.97-1.98h-15.79c-1.09-.01-1.97.87-1.97,1.96,0,1.09.88,1.97,1.97,1.97h13.81s-.01,13.82-.01,13.82c0,1.09.88,1.97,1.97,1.98,1.09,0,1.97-.88,1.98-1.97v-15.79ZM473.48,216.36h15.79c1.09.01,1.97-.87,1.98-1.96,0-1.09-.88-1.97-1.97-1.97h-13.81s.01-13.82.01-13.82c0-1.09-.88-1.97-1.97-1.97-1.09,0-1.97.88-1.98,1.97v15.79c-.01,1.09.87,1.97,1.96,1.98h0ZM528.73,216.4h15.79c1.09.01,1.97-.87,1.98-1.96h0s.01-15.79.01-15.79c0-1.09-.88-1.97-1.97-1.97-1.09,0-1.97.88-1.97,1.97v13.81s-13.82-.01-13.82-.01c-1.09,0-1.97.88-1.97,1.97,0,1.09.88,1.97,1.97,1.97M491.28,163.09c0-1.09-.88-1.97-1.97-1.98-1.09,0-1.97.88-1.97,1.97l-.02,31.57c0,1.09.88,1.97,1.97,1.97,1.09,0,1.97-.88,1.97-1.97l.02-31.57ZM499.17,163.1l-.02,31.57c0,1.09.88,1.97,1.97,1.97,1.09,0,1.97-.88,1.97-1.97l.02-31.57c0-1.09-.88-1.97-1.97-1.97-1.09,0-1.97.88-1.98,1.97M512.96,196.65c1.09,0,1.97-.88,1.97-1.97h0s.02-31.58.02-31.58c0-1.09-.88-1.97-1.97-1.97-1.09,0-1.97.88-1.97,1.97l-.02,31.57c0,1.09.88,1.97,1.97,1.97h0ZM520.86,196.66c1.09,0,1.97-.88,1.97-1.97h0s.02-31.58.02-31.58c0-1.09-.88-1.97-1.97-1.97-1.09,0-1.97.88-1.97,1.97l-.02,31.57c0,1.09.88,1.97,1.97,1.98h0ZM528.75,196.67c1.09,0,1.97-.88,1.97-1.97h0s.02-31.58.02-31.58c0-1.09-.88-1.97-1.97-1.98-1.09,0-1.97.88-1.97,1.97l-.02,31.57c0,1.09.88,1.97,1.97,1.97h0Z"/>
    <path class="cls-1" d="M75.74,304.65h-12.45s-5.61-22.53-5.61-22.53c0,0,0,0-.01,0-.27-1.07-1.35-1.72-2.43-1.45-1.07.27-1.72,1.36-1.45,2.43l5.37,21.55-30.92-.02,5.4-21.55c.27-1.07-.38-2.16-1.46-2.42-1.07-.27-2.16.38-2.43,1.45l-5.64,22.52h-12.45c-1.08,0-2.15.16-3.17.5-5.25,1.74-8.09,7.41-6.34,12.66l10.65,32.06c.99,2.97,3.32,5.31,6.29,6.32-1.64-3-2.71-6.26-3.17-9.64l-9.98-30c-.2-.61-.3-1.25-.3-1.9,0-3.32,2.69-6.01,6.01-6.01h11.45s-1.38,5.53-1.38,5.53c-.27,1.08.38,2.17,1.45,2.43.16.04.33.06.49.06.92,0,1.72-.62,1.94-1.51l1.63-6.5,32.93.03,1.62,6.49c.22.9,1.02,1.52,1.94,1.52.16,0,.33-.02.49-.05,1.07-.27,1.72-1.36,1.46-2.43l-1.38-5.53h11.45c.64.01,1.28.12,1.9.32,3.14,1.05,4.84,4.46,3.79,7.61l-10.02,29.98c-.46,3.38-1.54,6.64-3.18,9.63,2.97-1,5.3-3.33,6.3-6.3l10.7-32.04c.34-1.03.52-2.1.52-3.17,0-5.53-4.48-10.02-10.01-10.03M51.68,340.69h-6.01v-6.01c.01-1.11-.89-2.01-1.99-2.01s-2.01.9-2.01,2v6.01h-6.01c-1.11,0-2,.89-2.01,2,0,1.11.9,2,2.01,2.01h6.01v6.01c0,1.1.89,2,1.99,2s2.01-.89,2.01-2v-6.01h6.01c1.11.01,2.01-.89,2.01-1.99h0c0-1.11-.9-2.01-2.01-2.01M51.68,340.69h-6.01v-6.01c.01-1.11-.89-2.01-1.99-2.01s-2.01.9-2.01,2v6.01h-6.01c-1.11,0-2,.89-2.01,2,0,1.11.9,2,2.01,2.01h6.01v6.01c0,1.1.89,2,1.99,2s2.01-.89,2.01-2v-6.01h6.01c1.11.01,2.01-.89,2.01-1.99h0c0-1.11-.9-2.01-2.01-2.01M43.69,320.65c-12.17,0-22.04,9.85-22.05,22.02,0,12.17,9.84,22.04,22.01,22.05s22.04-9.85,22.05-22.02c0-12.16-9.85-22.02-22.01-22.05M43.66,360.72c-9.96-.01-18.02-8.09-18.02-18.05.01-9.95,8.09-18.02,18.04-18.01,9.96.01,18.02,8.09,18.02,18.04-.02,9.95-8.09,18.01-18.04,18.02M51.68,340.69h-6.01v-6.01c.01-1.11-.89-2.01-1.99-2.01s-2.01.9-2.01,2v6.01h-6.01c-1.11,0-2,.89-2.01,2,0,1.11.9,2,2.01,2.01h6.01v6.01c0,1.1.89,2,1.99,2s2.01-.89,2.01-2v-6.01h6.01c1.11.01,2.01-.89,2.01-1.99h0c0-1.11-.9-2.01-2.01-2.01"/>
    <path class="cls-3" d="M43.68,324.66c-9.95,0-18.03,8.06-18.04,18.01,0,9.96,8.06,18.04,18.02,18.05,9.95,0,18.02-8.07,18.04-18.02,0-9.95-8.06-18.03-18.02-18.04M53.69,342.7c0,1.1-.9,2-2.01,2h-6.01s0,6,0,6c0,1.11-.9,2-2.01,2s-2-.9-2-2v-6.01s-6,0-6,0c-1.11,0-2.01-.9-2.01-2.01.01-1.11.9-2,2.01-2h6.01v-6.01c0-1.1.9-2,2.01-2s2,.9,2,2.01v6.01s6,0,6,0c1.11,0,2.01.9,2.01,2h0Z"/>
    <path class="cls-1" d="M240.22,308.32c-1.93-2.72-5.07-4.32-8.41-4.31h-12.89s-5.82-23.34-5.82-23.34c-.27-1.11-1.4-1.79-2.51-1.51-1.11.28-1.79,1.4-1.51,2.51l5.56,22.33-32.03-.03,5.59-22.31c.28-1.11-.39-2.24-1.5-2.52-1.11-.27-2.24.4-2.52,1.51l-5.85,23.32h-12.89c-1.12,0-2.23.17-3.28.52-5.44,1.81-8.38,7.68-6.58,13.12l11.04,33.2c1.03,3.08,3.44,5.51,6.51,6.55-1.69-3.1-2.8-6.49-3.28-9.99l-10.33-31.07c-.21-.63-.32-1.3-.32-1.97,0-3.43,2.79-6.22,6.23-6.22h11.86s-1.43,5.73-1.43,5.73c-.28,1.11.39,2.24,1.51,2.52.16.04.33.06.5.06.95,0,1.78-.65,2.01-1.57l1.69-6.73,34.1.03,1.68,6.73c.23.92,1.06,1.57,2.01,1.57.17,0,.34-.02.5-.06,1.12-.28,1.79-1.4,1.52-2.52l-1.43-5.72h11.86c.67.01,1.33.12,1.96.33,3.27,1.09,5.03,4.62,3.94,7.88l-10.38,31.04c-.47,3.51-1.59,6.89-3.29,9.99,3.07-1.03,5.49-3.45,6.51-6.53l11.09-33.19c1.08-3.16.55-6.65-1.42-9.35M208.37,336.76h-.01c-.8-.81-2.12-.81-2.93,0l-8.91,8.9-4.76-4.76c-.8-.78-2.07-.78-2.88-.01-.82.8-.85,2.11-.05,2.94l6.22,6.23c.81.81,2.12.81,2.93,0l10.38-10.37c.81-.81.81-2.12.01-2.93M208.37,336.76h-.01c-.8-.81-2.12-.81-2.93,0l-8.91,8.9-4.76-4.76c-.8-.78-2.07-.78-2.88-.01-.82.8-.85,2.11-.05,2.94l6.22,6.23c.81.81,2.12.81,2.93,0l10.38-10.37c.81-.81.81-2.12.01-2.93M198.61,320.58c-12.6-.01-22.83,10.2-22.84,22.81,0,12.6,10.2,22.83,22.81,22.84,12.6.01,22.83-10.2,22.84-22.81-.01-12.6-10.21-22.81-22.81-22.84M198.58,362.08c-10.31-.01-18.67-8.38-18.66-18.69s8.38-18.67,18.69-18.66,18.66,8.38,18.66,18.69c-.02,10.31-8.38,18.65-18.69,18.66M208.36,336.76c-.8-.81-2.12-.81-2.93,0l-8.91,8.9-4.76-4.76c-.8-.78-2.07-.78-2.88-.01-.82.8-.85,2.11-.05,2.94l6.22,6.23c.81.81,2.12.81,2.93,0l10.38-10.37c.81-.81.81-2.12.01-2.93h-.01Z"/>
    <path class="cls-3" d="M198.61,324.73c-10.31-.01-18.68,8.35-18.69,18.66s8.35,18.68,18.66,18.69c10.31,0,18.67-8.35,18.69-18.66,0-10.31-8.35-18.68-18.66-18.69M208.36,339.69l-10.38,10.37c-.81.81-2.12.81-2.93,0l-6.22-6.23c-.8-.83-.77-2.14.05-2.94.81-.77,2.08-.77,2.88,0l4.76,4.76,8.91-8.9c.81-.81,2.13-.81,2.93,0h.01c.8.81.8,2.12-.01,2.93"/>
    <path class="cls-1" d="M311.44,312.38c-1.98,2.7-2.51,6.2-1.44,9.37l11.07,33.28c1.41,4.25,5.38,7.12,9.86,7.11l44.35.03c4.48,0,8.45-2.85,9.87-7.1l11.12-33.26c1.82-5.45-1.12-11.34-6.57-13.16-1.06-.35-2.17-.54-3.29-.54h-14.09s-4.64-23.29-4.64-23.29c-.22-1.13-1.32-1.86-2.44-1.63-1.13.22-1.86,1.32-1.63,2.44l4.48,22.47-29.86-.02,4.51-22.46c.22-1.13-.51-2.22-1.63-2.45-1.13-.23-2.22.5-2.45,1.63l-4.67,23.28h-14.09c-3.35-.03-6.49,1.58-8.44,4.3M331.92,328.83c.14.03.27.04.41.04.99,0,1.84-.7,2.04-1.67l3-14.96,31.52.02,2.98,14.96c.19.97,1.04,1.67,2.04,1.67.14,0,.27-.01.41-.04,1.12-.22,1.86-1.32,1.63-2.44,0,0,0,0,0,0l-2.82-14.15h13.26c3.45.01,6.24,2.81,6.23,6.26,0,.67-.11,1.33-.32,1.97l-11.12,33.26c-.85,2.55-3.23,4.26-5.92,4.26l-44.35-.03c-2.69,0-5.07-1.72-5.91-4.27l-11.07-33.28c-1.09-3.27.68-6.8,3.96-7.89.64-.21,1.3-.32,1.97-.32h13.26s-2.84,14.16-2.84,14.16c-.23,1.12.5,2.22,1.63,2.45h0"/>
    <path class="cls-1" d="M834.68,143.91l-51.57-.03c-5.08,0-9.21,4.12-9.22,9.2l-.03,51.57c0,5.08,4.11,9.21,9.2,9.22l51.57.03c5.08,0,9.21-4.11,9.22-9.2l.03-51.57c0-5.08-4.11-9.21-9.2-9.22M799.68,147.57l18.42.02-.02,24.18-8.18-5.46c-.62-.42-1.42-.42-2.04,0l-8.19,5.45v-24.19ZM840.16,204.7c0,3.05-2.48,5.52-5.53,5.52l-51.57-.04c-3.05,0-5.52-2.48-5.52-5.53l.04-51.57c0-3.05,2.48-5.52,5.53-5.52h12.89s-.02,27.64-.02,27.64c0,1.01.82,1.84,1.84,1.84.36,0,.72-.11,1.02-.31l10.04-6.68,10.02,6.7c.85.56,1.99.33,2.56-.51.2-.3.31-.66.31-1.02l.02-27.63h12.89c3.05.01,5.52,2.49,5.52,5.54l-.04,51.57Z"/>
    <path class="cls-3" d="M818.1,147.59l-.02,24.18-8.18-5.46c-.62-.42-1.42-.42-2.04,0l-8.19,5.45v-24.19s18.43.02,18.43.02Z"/>
    <path class="cls-1" d="M549.09,325.46l-7.69-11.54s-.06-.04-.09-.07c-.2-.28-.47-.5-.79-.63-.01-.01-.02-.03-.04-.04l-11.53-4.33c-1-.37-2.11.14-2.48,1.13-.37.99.13,2.09,1.12,2.47l6.74,2.53-25.3,9.46-25.28-9.5,5.46-2.04c.99-.37,1.49-1.48,1.11-2.48-.37-.99-1.47-1.49-2.46-1.12l-10.26,3.84s-.03.02-.04.03c-.32.13-.6.35-.8.63-.02.03-.06.04-.09.07l-7.7,11.53c-.59.89-.35,2.08.54,2.67.12.08.25.15.38.2l6.45,2.42v13.53c0,4,2.48,7.58,6.22,9.01l25.77,9.68c.43.16.91.16,1.35,0l25.78-9.64c3.74-1.42,6.23-5,6.24-9v-13.53s6.46-2.41,6.46-2.41c.55-.21.97-.65,1.15-1.21s.1-1.17-.22-1.66M473.52,325.52l5.5-8.24,27.06,10.17-5.5,8.24-27.06-10.17ZM507.08,358.33l-23.17-8.7c-2.24-.86-3.73-3.01-3.74-5.41v-12.08s20.48,7.69,20.48,7.69c.84.31,1.78.01,2.28-.73l4.17-6.25-.02,25.48ZM537.86,344.27c-.01,2.4-1.5,4.54-3.75,5.39l-23.18,8.68.02-25.49,4.16,6.26c.5.74,1.44,1.05,2.28.73l20.48-7.66v12.09ZM517.47,335.71l-5.5-8.26,27.08-10.13,5.49,8.26-27.07,10.13ZM509.06,282.27c-1.06,0-1.92.86-1.92,1.93l-.02,19.22h0c0,1.07.86,1.93,1.92,1.93h.01c1.06,0,1.92-.86,1.92-1.92v-19.23c.01-1.06-.85-1.92-1.91-1.93M498.87,305.9l-11.53-11.54c-.75-.72-1.93-.72-2.67,0-.77.73-.79,1.95-.05,2.72l11.53,11.54s.03.03.04.05c.77.74,1.98.72,2.72-.05.74-.76.72-1.98-.04-2.72M533.49,294.44c-.74-.76-1.96-.79-2.72-.05l-11.55,11.53c-.36.36-.56.85-.56,1.36,0,1.06.86,1.92,1.92,1.92.51,0,1-.2,1.36-.56l11.54-11.53c.72-.74.72-1.92.01-2.67"/>
    <polygon class="cls-3" points="506.08 327.45 500.58 335.69 473.52 325.52 479.02 317.28 506.08 327.45"/>
    <polygon class="cls-3" points="544.54 325.58 517.47 335.71 511.97 327.45 539.05 317.32 544.54 325.58"/>
    <path class="cls-1" d="M534.47,29.2h-5.45v-5.46c0-1-.81-1.82-1.81-1.82s-1.82.81-1.82,1.82v5.45h-5.46c-1.01,0-1.82.81-1.82,1.81s.81,1.82,1.82,1.82h5.45v5.46c0,1.01.81,1.82,1.81,1.82s1.82-.81,1.82-1.81v-5.46s5.46.01,5.46.01c1.01,0,1.82-.82,1.82-1.82s-.81-1.82-1.82-1.82M534.47,29.2h-5.45v-5.46c0-1-.81-1.82-1.81-1.82s-1.82.81-1.82,1.82v5.45h-5.46c-1.01,0-1.82.81-1.82,1.81s.81,1.82,1.82,1.82h5.45v5.46c0,1.01.81,1.82,1.81,1.82s1.82-.81,1.82-1.81v-5.46s5.46.01,5.46.01c1.01,0,1.82-.82,1.82-1.82s-.81-1.82-1.82-1.82M527.22,11.01c-11.05-.01-20.01,8.94-20.02,19.99-.01,11.04,8.94,20,19.99,20.01,11.04.01,20-8.94,20.01-19.98,0-11.04-8.94-20-19.98-20.02M527.19,47.38c-9.04-.01-16.36-7.34-16.35-16.38,0-9.04,7.34-16.36,16.37-16.35,9.04,0,16.36,7.34,16.35,16.37-.01,9.04-7.34,16.35-16.37,16.36M534.47,29.2h-5.45v-5.46c0-1-.81-1.82-1.81-1.82s-1.82.81-1.82,1.82v5.45h-5.46c-1.01,0-1.82.81-1.82,1.81s.81,1.82,1.82,1.82h5.45v5.46c0,1.01.81,1.82,1.81,1.82s1.82-.81,1.82-1.81v-5.46s5.46.01,5.46.01c1.01,0,1.82-.82,1.82-1.82s-.81-1.82-1.82-1.82M530.82,58.29l-29.95-.02c-2.75-.01-5.06-2.06-5.41-4.79l-.76-6.13h13.02c-.95-1.13-1.8-2.34-2.54-3.63h-10.93s-3.16-25.46-3.16-25.46h14.11c.74-1.28,1.59-2.49,2.54-3.63h-17.11s-.81-6.59-.81-6.59c-.57-4.55-4.44-7.96-9.02-7.97h-8.12c-1.01-.01-1.82.8-1.82,1.81s.81,1.82,1.81,1.82h8.13c2.75.01,5.06,2.06,5.41,4.79l5.65,45.44c.33,2.66,1.82,5.03,4.07,6.48-3.88,3.2-4.42,8.93-1.23,12.8,3.2,3.87,8.93,4.42,12.81,1.22,3.76-3.11,4.4-8.64,1.44-12.52h14.64c-1.21,1.57-1.86,3.49-1.87,5.46,0,5.02,4.06,9.1,9.08,9.1s9.1-4.06,9.1-9.08-4.06-9.1-9.08-9.1M501.71,72.81c-3.01,0-5.45-2.44-5.45-5.46.01-3.01,2.45-5.45,5.46-5.45,3.01.01,5.45,2.45,5.45,5.46s-2.44,5.45-5.46,5.45M530.81,72.83c-3.02,0-5.46-2.44-5.45-5.45,0-3.02,2.44-5.45,5.45-5.46,3.02,0,5.46,2.45,5.45,5.46,0,3.02-2.44,5.46-5.45,5.45"/>
    <path class="cls-3" d="M527.21,14.65c-9.03-.01-16.37,7.31-16.37,16.35-.01,9.04,7.31,16.37,16.35,16.38,9.03,0,16.36-7.32,16.37-16.36,0-9.03-7.31-16.37-16.35-16.37M534.47,32.84h-5.45s-.01,5.45-.01,5.45c0,1-.81,1.81-1.82,1.81s-1.81-.81-1.81-1.82v-5.45h-5.45c-1.01-.01-1.82-.82-1.82-1.83s.81-1.81,1.82-1.81h5.45v-5.45c.01-1.01.82-1.82,1.83-1.82s1.82.82,1.81,1.82v5.45h5.45c1.01.01,1.82.82,1.82,1.83s-.81,1.82-1.82,1.82"/>
    <path class="cls-1" d="M682.82,58.32l-29.99-.02c-2.76,0-5.08-2.06-5.42-4.79l-.76-6.14,32.54.02c4.18.01,7.82-2.83,8.84-6.89l2.5-10-2.33,2.53c-.7.75-1.55,1.35-2.5,1.75l-1.21,4.83c-.61,2.44-2.79,4.14-5.3,4.14l-33-.03-3.17-25.5,21.01.02c-.87-1.11-1.56-2.34-2.05-3.65h-19.41s-.82-6.6-.82-6.6C641.18,3.43,637.31.01,632.72,0h-8.14c-1-.01-1.82.81-1.82,1.82s.82,1.82,1.82,1.82h8.14c2.75.01,5.07,2.06,5.42,4.79l5.66,45.53c.33,2.66,1.82,5.03,4.07,6.49-3.87,3.2-4.42,8.94-1.22,12.82,3.2,3.88,8.94,4.43,12.82,1.22,3.78-3.11,4.41-8.65,1.45-12.54h14.66c-1.2,1.58-1.86,3.5-1.87,5.47,0,5.03,4.07,9.11,9.1,9.12,5.03,0,9.11-4.07,9.11-9.1.01-5.03-4.07-9.11-9.1-9.12M653.67,72.87c-3.02,0-5.46-2.45-5.46-5.47.01-3.01,2.45-5.46,5.47-5.46,3.02.01,5.46,2.45,5.46,5.47s-2.45,5.46-5.47,5.46M682.81,72.89c-3.02,0-5.46-2.45-5.46-5.47.01-3.01,2.45-5.45,5.47-5.46,3.02.01,5.46,2.46,5.46,5.47s-2.45,5.47-5.47,5.46M696.53,2.79s0-.01-.01-.01c-3.68-3.52-9.48-3.53-13.17-.01l-.49.48-.48-.48c-3.68-3.53-9.49-3.53-13.18-.01-3.62,3.61-3.65,9.48-.05,13.13l12.35,13.43c.69.74,1.84.79,2.58.11.04-.04.07-.07.11-.11l12.33-13.36c3.64-3.63,3.65-9.53.01-13.17M693.94,13.39s-.03.03-.05.05l-11.04,11.96-11.08-12.03c-2.22-2.22-2.22-5.81-.01-8.03,2.22-2.22,5.81-2.23,8.03-.01.01,0,.01.01.02.01l1.76,1.77c.71.71,1.87.71,2.58,0l1.77-1.76c2.25-2.14,5.78-2.14,8.03,0,2.21,2.22,2.21,5.82-.01,8.04"/>
    <path class="cls-3" d="M693.94,13.39s-.03.03-.05.05l-11.04,11.96-11.08-12.03c-2.22-2.22-2.22-5.81-.01-8.03,2.22-2.22,5.81-2.23,8.03-.01.01,0,.01.01.02.01l1.76,1.77c.71.71,1.87.71,2.58,0l1.77-1.76c2.25-2.14,5.78-2.14,8.03,0,2.21,2.22,2.21,5.82-.01,8.04"/>
    <path class="cls-1" d="M846.89,12.28c-.39-1.24-1.55-2.08-2.85-2.08h-8s-2.47-7.98-2.47-7.98c-.5-1.59-2.18-2.48-3.77-1.99-.95.3-1.69,1.04-1.98,1.98l-2.49,7.97h-8c-1.65,0-3,1.34-3,3,0,.96.46,1.87,1.24,2.43l6.21,4.49-2.45,8.91c-.36,1.24.13,2.58,1.21,3.29,1.07.74,2.48.7,3.51-.09l6.62-5.01,6.62,5.02c1.32,1.01,3.21.75,4.22-.58.56-.74.75-1.71.5-2.61l-2.44-8.91,6.22-4.48c1.06-.76,1.51-2.12,1.1-3.36M837.25,17.31c-1.11.8-1.61,2.2-1.25,3.52l2.02,7.38-5.37-4.08c-1.17-.88-2.78-.88-3.95,0l-5.37,4.07,2.03-7.38c.35-1.31-.14-2.71-1.24-3.52l-4.83-3.48h6.3c1.44.01,2.71-.93,3.13-2.3l1.97-6.3,1.96,6.31c.42,1.37,1.69,2.3,3.12,2.3h6.3l-4.82,3.48ZM830.66,58.29l-29.94-.02c-2.75-.01-5.07-2.06-5.41-4.79l-.76-6.13,32.48.03c4.17,0,7.81-2.84,8.82-6.89l.66-2.62c-.91-.29-1.76-.73-2.52-1.3l-.75-.58-.91,3.62c-.61,2.43-2.79,4.13-5.3,4.13l-32.94-.03-3.16-25.45h19.66c-.81-1.06-1.36-2.3-1.59-3.63h-18.52s-.82-6.59-.82-6.59c-.57-4.55-4.43-7.96-9.01-7.97h-8.13c-1-.01-1.82.8-1.82,1.81s.81,1.82,1.82,1.82h8.12c2.75.01,5.07,2.06,5.41,4.79l5.65,45.44c.34,2.66,1.83,5.03,4.07,6.48-3.87,3.2-4.42,8.93-1.22,12.8,3.2,3.87,8.93,4.42,12.8,1.22,3.77-3.11,4.4-8.64,1.44-12.52h14.64c-1.2,1.57-1.86,3.49-1.87,5.46,0,5.02,4.07,9.1,9.09,9.1s9.09-4.06,9.1-9.08c0-5.02-4.07-9.1-9.09-9.1M801.56,72.81c-3.01,0-5.46-2.44-5.45-5.46,0-3.01,2.44-5.45,5.46-5.45,3.01.01,5.45,2.45,5.45,5.46-.01,3.01-2.45,5.45-5.46,5.45M830.65,72.83c-3.01,0-5.45-2.44-5.45-5.45s2.45-5.45,5.46-5.46c3.01,0,5.45,2.45,5.45,5.46s-2.45,5.46-5.46,5.45"/>
    <path class="cls-2" d="M972,26.24c-.69-.71-1.82-.73-2.52-.04l-7.66,7.66-4.09-4.09c-.69-.67-1.79-.67-2.48,0-.71.68-.73,1.81-.05,2.52l5.36,5.35c.69.7,1.82.7,2.52,0l8.92-8.92c.67-.69.67-1.79,0-2.48M967.17,58.68h-29.38c-2.7,0-4.97-2.01-5.31-4.69l-.75-6.01h12.77c-.93-1.12-1.77-2.31-2.49-3.57h-10.73l-3.12-24.98h13.85c.72-1.26,1.56-2.45,2.49-3.56h-16.79l-.8-6.46c-.57-4.46-4.36-7.81-8.85-7.82h-7.98c-.98,0-1.78.8-1.78,1.79s.8,1.78,1.78,1.78h7.98c2.69,0,4.97,2.01,5.31,4.69l5.57,44.58c.33,2.61,1.8,4.93,4,6.35-3.8,3.14-4.33,8.77-1.19,12.56,3.14,3.8,8.76,4.33,12.56,1.19,3.69-3.05,4.31-8.47,1.41-12.28h14.36c-1.18,1.53-1.82,3.41-1.83,5.35,0,4.92,3.99,8.92,8.92,8.92s8.92-4,8.92-8.92-4-8.92-8.92-8.92M938.63,72.95c-2.96,0-5.36-2.4-5.36-5.35.01-2.96,2.4-5.35,5.36-5.35s5.35,2.39,5.35,5.35-2.4,5.35-5.35,5.35M967.17,72.95c-2.96,0-5.35-2.4-5.35-5.35s2.39-5.35,5.35-5.35,5.35,2.39,5.35,5.35-2.4,5.35-5.35,5.35M972,26.24c-.69-.71-1.82-.73-2.52-.04l-7.66,7.66-4.09-4.09c-.69-.67-1.79-.67-2.48,0-.71.68-.73,1.81-.05,2.52l5.36,5.35c.69.7,1.82.7,2.52,0l8.92-8.92c.67-.69.67-1.79,0-2.48M963.6,12.3c-10.84,0-19.62,8.78-19.62,19.62.01,10.83,8.79,19.61,19.62,19.62,10.84,0,19.62-8.78,19.62-19.62s-8.78-19.62-19.62-19.62M963.6,47.98c-8.87,0-16.05-7.19-16.05-16.06.01-8.86,7.19-16.05,16.05-16.05s16.06,7.18,16.06,16.05-7.19,16.06-16.06,16.06M969.48,26.2l-7.66,7.66-4.09-4.09c-.69-.67-1.79-.67-2.48,0-.71.68-.73,1.81-.05,2.52l5.36,5.35c.69.7,1.82.7,2.52,0l8.92-8.92c.67-.69.67-1.79,0-2.48-.69-.71-1.82-.73-2.52-.04"/>
    <path class="cls-3" d="M963.6,15.87c-8.86,0-16.04,7.19-16.05,16.05,0,8.87,7.18,16.06,16.05,16.06s16.06-7.19,16.06-16.06-7.19-16.05-16.06-16.05M972,28.72l-8.92,8.92c-.7.7-1.83.7-2.52,0l-5.36-5.35c-.68-.71-.66-1.84.05-2.52.69-.67,1.79-.67,2.48,0l4.09,4.09,7.66-7.66c.7-.69,1.83-.67,2.52.04.67.69.67,1.79,0,2.48"/>
    <path class="cls-3" d="M836,20.83l2.02,7.38-5.37-4.08c-1.17-.88-2.78-.88-3.95,0l-5.37,4.07,2.03-7.38c.35-1.31-.14-2.71-1.24-3.52l-4.83-3.48h6.3c1.44.01,2.71-.93,3.13-2.3l1.97-6.3,1.96,6.31c.42,1.37,1.69,2.3,3.12,2.3h6.3l-4.82,3.48c-1.11.8-1.61,2.2-1.25,3.52"/>
    <path class="cls-1" d="M652.76,193.29h-16.47c-1.14-.01-2.06.91-2.06,2.05s.92,2.06,2.06,2.06h16.47c1.14.01,2.06-.91,2.06-2.05s-.92-2.06-2.06-2.06M652.76,193.29h-16.47c-1.14-.01-2.06.91-2.06,2.05s.92,2.06,2.06,2.06h16.47c1.14.01,2.06-.91,2.06-2.05s-.92-2.06-2.06-2.06M693.97,143.92l-65.87-.05c-5.69,0-10.29,4.6-10.3,10.29l-.04,49.4c0,5.68,4.6,10.29,10.28,10.3l65.88.05c5.68,0,10.29-4.6,10.3-10.28l.03-49.41c0-5.68-4.6-10.29-10.28-10.3M700.1,203.62c-.01,3.41-2.77,6.17-6.18,6.17l-65.87-.05c-3.41,0-6.17-2.77-6.17-6.18v-22.64s78.24.06,78.24.06l-.02,22.64ZM700.12,176.86l-78.22-.06v-12.35s78.23.06,78.23.06v12.35ZM700.13,160.39l-78.22-.06v-6.17c.01-3.41,2.77-6.17,6.18-6.17l65.88.05c3.41,0,6.17,2.77,6.17,6.18v6.17ZM636.29,197.4h16.47c1.14.01,2.06-.91,2.06-2.05s-.92-2.06-2.06-2.06h-16.47c-1.14-.01-2.06.91-2.06,2.05s.92,2.06,2.06,2.06"/>
    <rect class="cls-3" x="621.9" y="164.48" width="78.22" height="12.35"/>
    <path class="cls-1" d="M19.4,492.46c-3.2-3.18-5.73-6.97-7.46-11.13-.34-.84.06-1.79.89-2.14.83-.34,1.78.05,2.13.88,1.57,3.77,3.86,7.19,6.76,10.07.64.64.65,1.67.01,2.31-.63.64-1.67.65-2.31.01,0,0,0,0-.01-.01M56.22,500.02c.21,0,.43-.04.63-.12,4.17-1.73,7.96-4.26,11.14-7.45.63-.64.62-1.68-.02-2.31-.64-.62-1.65-.62-2.29,0-2.88,2.89-6.31,5.18-10.08,6.74-.84.35-1.23,1.3-.89,2.14.25.61.85,1.01,1.51,1.01h0ZM32.61,437.27c-.35-.83-1.31-1.23-2.14-.88,0,0,0,0,0,0-4.17,1.74-7.95,4.28-11.13,7.48-.64.64-.64,1.68,0,2.32.64.64,1.68.64,2.32,0,2.88-2.9,6.3-5.19,10.07-6.77.83-.35,1.23-1.31.88-2.14M76.43,466.45c-.92.03-1.64.79-1.64,1.7,0,4.08-.8,8.12-2.36,11.89-.35.83.05,1.79.88,2.14.84.35,1.79-.05,2.14-.88,1.74-4.18,2.63-8.67,2.61-13.2l-1.64-.08h1.64c0-.87-.71-1.57-1.59-1.57-.02,0-.03,0-.05,0M10.95,469.78c.91-.02,1.64-.76,1.64-1.67,0-4.06.79-8.08,2.34-11.84.35-.83-.05-1.79-.88-2.14-.83-.35-1.79.05-2.14.88,0,0,0,0,0,.01-1.71,4.15-2.59,8.59-2.59,13.08v.07c0,.89.72,1.61,1.61,1.61,0,0,.02,0,.03,0M42.03,435.39c.02.91.77,1.64,1.69,1.64,4.05,0,8.06.79,11.81,2.33.2.08.41.12.62.12.9,0,1.64-.73,1.64-1.64,0-.66-.4-1.26-1.01-1.51-4.16-1.71-8.61-2.58-13.11-2.57h-.01l-.04,1.64v-1.64c-.88,0-1.59.72-1.59,1.6v.04M67.93,443.76c-.64-.64-1.68-.64-2.32,0-.64.64-.64,1.68,0,2.32,2.9,2.88,5.2,6.29,6.78,10.06.25.61.85,1.01,1.51,1.01.22,0,.43-.04.63-.13.83-.35,1.23-1.31.88-2.14,0,0,0,0,0,0-1.74-4.16-4.28-7.94-7.49-11.12M43.7,502.51c.9,0,1.62-.73,1.62-1.62h0c0-.92-.75-1.65-1.65-1.65-4.07,0-8.1-.79-11.86-2.35-.84-.34-1.79.06-2.13.89-.34.83.05,1.78.88,2.13,4.16,1.72,8.61,2.61,13.11,2.6h.03ZM53.5,481.23c1.81,0,3.28-1.46,3.28-3.27,0-1.81-1.46-3.27-3.27-3.28-1.81,0-3.27,1.46-3.28,3.27,0,1.81,1.46,3.27,3.27,3.28M30.6,458.3c0,1.81,1.46,3.27,3.27,3.28,1.81,0,3.27-1.46,3.28-3.27,0-1.81-1.46-3.27-3.27-3.28-1.81,0-3.27,1.46-3.28,3.27M57.95,453.89c-.64-.64-1.67-.64-2.31,0h0l-26.21,26.17c-.65.63-.67,1.66-.04,2.32.63.65,1.66.67,2.31.04.01-.01.03-.03.04-.04l26.21-26.17c.64-.64.64-1.67,0-2.32"/>
    <path class="cls-1" d="M983.98,158.68h-7.38c3.07-4.04,2.28-9.8-1.76-12.87-1.76-1.34-3.94-2-6.15-1.85-7.65-.01-11.98,6.36-14.14,11.1-2.15-4.74-6.47-11.12-14.11-11.12-5.06-.34-9.44,3.49-9.78,8.55-.14,2.21.51,4.39,1.85,6.15h-7.39c-5.08,0-9.19,4.11-9.2,9.19l-.03,36.79c0,5.08,4.11,9.19,9.19,9.2l58.86.05c5.08,0,9.2-4.12,9.21-9.19l.02-36.79c0-5.08-4.11-9.2-9.19-9.21M968.69,147.64c3.04-.31,5.76,1.91,6.07,4.96.31,3.05-1.91,5.77-4.96,6.07-.37.04-.75.04-1.12,0h-11.62c1.39-3.8,4.92-11.04,11.63-11.03M939.31,147.61c.37-.03.75-.03,1.12,0,6.68.01,10.21,7.25,11.61,11.05h-11.62c-3.04.3-5.76-1.92-6.07-4.97-.31-3.05,1.91-5.77,4.96-6.08M989.47,204.67c-.01,3.05-2.48,5.52-5.53,5.52l-58.86-.05c-3.04,0-5.51-2.47-5.51-5.52v-5.52l69.9.06v5.51ZM989.47,195.48l-69.9-.06.03-27.59c0-3.04,2.47-5.51,5.52-5.51l25.75.02-8.84,11.76c-.61.82-.44,1.97.37,2.58.81.61,1.96.45,2.57-.37l9.58-12.74,9.55,12.76c.61.81,1.76.98,2.58.37.81-.61.98-1.76.37-2.58l-8.82-11.78,25.75.02c3.05.01,5.51,2.48,5.51,5.52l-.02,27.6Z"/>
    <path class="cls-3" d="M989.47,199.16v5.51c-.01,3.05-2.48,5.52-5.53,5.52l-58.86-.05c-3.04,0-5.51-2.47-5.51-5.52v-5.52l69.9.06Z"/>
    <path class="cls-1" d="M984.37,323.09l-.02,31.58h5.26c.97,0,1.75.79,1.75,1.76,0,.97-.79,1.75-1.76,1.75h-7.02c-.97,0-1.75-.79-1.75-1.76h0s.02-33.34.02-33.34h-3.14c-1.73,0-3.43-.52-4.86-1.48l-6.99-4.67c-.86-.58-1.88-.89-2.92-.89h-5.5c-1.4,0-2.73.55-3.72,1.54l-10.23,10.22c-1.25,1.25-1.25,3.28,0,4.54,1.27,1.21,3.27,1.22,4.54,0l8.78-8.77c.7-.67,1.81-.65,2.48.05.66.68.66,1.76,0,2.44l-8.78,8.77c-2.64,2.61-6.89,2.58-9.5-.06-2.58-2.62-2.58-6.83,0-9.44l10.23-10.22c1.64-1.65,3.88-2.57,6.21-2.57h5.5c1.73,0,3.43.52,4.87,1.48l6.99,4.67c.86.58,1.88.89,2.92.89h11.91c.97,0,1.76.79,1.75,1.76,0,.97-.79,1.75-1.76,1.75h-5.26ZM965.7,334.12c-.69-.68-1.8-.67-2.48.02-.67.68-.67,1.77,0,2.46l9.07,9.08c2.05,2.06,2.05,5.39,0,7.45-.99.99-2.33,1.54-3.72,1.54l-25.17-.02c-1.39,0-2.73-.56-3.72-1.55l-2.9-2.91c-1.64-1.65-3.87-2.58-6.2-2.57h-2.36s.02-24.57.02-24.57h2.36c2.33.01,4.56-.91,6.2-2.56l2.91-2.9c.84-.83,1.94-1.35,3.11-1.48l3.57-3.57h-2.96c-2.33-.01-4.56.91-6.21,2.56l-2.91,2.9c-.99.98-2.33,1.54-3.72,1.54h-11.13c-.97,0-1.76.78-1.76,1.74,0,.97.78,1.76,1.75,1.76h5.26s-.02,31.59-.02,31.59h-5.26c-.97,0-1.76.78-1.76,1.75,0,.97.78,1.75,1.75,1.76h7.02c.97,0,1.76-.78,1.76-1.75h0s0-5.27,0-5.27h2.36c1.4,0,2.73.56,3.72,1.55l2.9,2.91c1.64,1.65,3.87,2.58,6.2,2.58l25.17.02c4.85,0,8.78-3.92,8.78-8.77,0-2.33-.92-4.56-2.56-6.2l-9.07-9.08ZM952.82,286.22v10.53c0,.97.78,1.76,1.75,1.76s1.76-.78,1.76-1.75v-10.53c0-.97-.78-1.76-1.75-1.76-.97,0-1.76.78-1.76,1.75M935.78,295.5c-.69.68-.69,1.8,0,2.48h0s7.01,7.02,7.01,7.02c.7.67,1.81.65,2.48-.04.66-.68.66-1.76,0-2.44l-7.01-7.02c-.69-.69-1.8-.69-2.48,0h0ZM970.87,295.52l-7.02,7.01c-.7.67-.72,1.78-.04,2.48.67.7,1.78.72,2.48.05.02-.02.03-.03.04-.04l7.02-7.01c.67-.7.66-1.81-.04-2.48-.68-.66-1.76-.66-2.44,0"/>
    <path class="cls-1" d="M804.68,363.7c3.01,3.02,7.91,3.03,10.93.01,0,0,0,0,0,0l22.38-22.34c3.02-3.02,3.02-7.91,0-10.93l-24.93-24.96c-1.45-1.45-3.41-2.27-5.46-2.27l-22.36-.02c-4.27,0-7.73,3.46-7.74,7.72l-.02,22.36c0,2.05.81,4.02,2.26,5.47l24.93,24.96ZM780.5,310.91c0-2.62,2.13-4.74,4.75-4.74l22.36.02c1.26,0,2.46.5,3.35,1.39l24.92,24.96c1.85,1.85,1.84,4.85,0,6.71l-22.38,22.34c-1.88,1.79-4.83,1.79-6.7,0l-24.92-24.96c-.89-.89-1.39-2.09-1.39-3.35l.02-22.36ZM793.96,323.87c-1.17-1.17-1.17-3.06,0-4.23,1.17-1.17,3.06-1.17,4.23,0s1.17,3.06,0,4.23c-1.17,1.17-3.06,1.17-4.23,0Z"/>
    <path class="cls-1" d="M653.9,316.16c-1.29-1.3-3.38-1.3-4.68-.01-1.29,1.3-1.29,3.39,0,4.69,1.29,1.29,3.39,1.29,4.68,0,1.29-1.29,1.3-3.39,0-4.68M653.9,316.16c-1.29-1.3-3.38-1.3-4.68-.01-1.29,1.3-1.29,3.39,0,4.69,1.29,1.29,3.39,1.29,4.68,0,1.29-1.29,1.3-3.39,0-4.68M693.47,327.02l-24.85-24.89c-1.47-1.48-3.47-2.31-5.56-2.31h-22.29c-3.9,0-7.2,2.86-7.76,6.72-3.86.55-6.73,3.85-6.75,7.75v22.29c-.01,2.09.82,4.09,2.29,5.57l24.85,24.88c2.85,2.88,7.42,3.09,10.53.5-1.63-.22-3.21-.74-4.65-1.56-1.31.11-2.61-.35-3.54-1.28l-24.85-24.88c-.85-.86-1.33-2.02-1.33-3.23v-22.29c.02-2.03,1.37-3.81,3.33-4.36l-.02,20.04c.01,2.08.83,4.08,2.3,5.56l24.85,24.89c3.08,3.07,8.05,3.07,11.13.01l22.31-22.28c3.07-3.07,3.08-8.05.01-11.13M691.12,335.81l-22.31,22.27c-1.78,1.78-4.67,1.78-6.45,0l-24.84-24.89c-.86-.85-1.33-2.01-1.34-3.22l.02-22.29c0-2.52,2.05-4.56,4.56-4.56l22.3.02c1.21,0,2.37.47,3.22,1.33l24.85,24.89c1.77,1.78,1.77,4.67-.01,6.45M649.22,316.15c-1.29,1.3-1.29,3.39,0,4.69,1.29,1.29,3.39,1.29,4.68,0,1.29-1.29,1.3-3.39,0-4.68-1.29-1.3-3.38-1.3-4.68-.01"/>
    <path class="cls-3" d="M691.13,329.36l-24.85-24.89c-.85-.86-2.01-1.34-3.22-1.33l-22.3-.02c-2.51,0-4.56,2.04-4.56,4.56l-.02,22.29c.01,1.21.48,2.37,1.34,3.22l24.84,24.89c1.78,1.78,4.67,1.78,6.45,0l22.31-22.27c1.78-1.78,1.78-4.67.01-6.45M653.9,320.84c-1.29,1.29-3.39,1.29-4.68,0-1.29-1.3-1.29-3.39,0-4.69,1.3-1.29,3.39-1.29,4.68.01,1.3,1.29,1.29,3.39,0,4.68"/>
    <path class="cls-1" d="M240.44,28.42l-4.43-6.66c-1.92-2.89-5.16-4.62-8.63-4.62l-18.37-.02v-3.71c0-5.72-4.63-10.36-10.36-10.37l-33.18-.03c-5.72,0-10.36,4.64-10.37,10.36l-.03,41.48c0,5.72,4.63,10.36,10.36,10.37h.21c-.12-.68-.19-1.38-.21-2.07.02-.7.09-1.39.21-2.07h-.21c-3.44-.01-6.22-2.8-6.22-6.23l.03-41.47c.01-3.44,2.8-6.22,6.23-6.22l33.18.02c3.43.01,6.21,2.8,6.22,6.23l-.04,47.7h-6.43c.11.68.18,1.37.21,2.06-.03.7-.1,1.39-.21,2.08h8.5c1.15.01,2.07-.92,2.08-2.07v-22.81s29.05.02,29.05.02l-.02,14.52c0,.12-.03.24-.03.36,1.02,1.87,1.67,3.92,1.91,6.03,1.46-1.81,2.26-4.06,2.27-6.39l.02-20.74c0-2.04-.6-4.04-1.74-5.75M238.03,36.25l-29.03-.03v-14.95s18.38.01,18.38.01c2.08,0,4.02,1.04,5.17,2.78l4.44,6.66c.68,1.02,1.04,2.22,1.04,3.45v2.08ZM191.26,32.28l-7.14-3.58v-7.01c0-1.15-.92-2.08-2.07-2.08s-2.07.93-2.08,2.08v8.29c0,.79.44,1.5,1.14,1.86l8.3,4.15c1.02.51,2.27.1,2.78-.93.51-1.02.1-2.26-.93-2.78M191.26,32.28l-7.14-3.58v-7.01c0-1.15-.92-2.08-2.07-2.08s-2.07.93-2.08,2.08v8.29c0,.79.44,1.5,1.14,1.86l8.3,4.15c1.02.51,2.27.1,2.78-.93.51-1.02.1-2.26-.93-2.78M182.06,11.32c-10.31-.01-18.67,8.34-18.68,18.65s8.34,18.67,18.65,18.68c10.3-.01,18.66-8.35,18.68-18.65,0-10.31-8.35-18.67-18.65-18.68M182.03,44.5c-8.02-.01-14.51-6.51-14.5-14.53,0-8.02,6.51-14.51,14.52-14.5,8.02,0,14.51,6.51,14.51,14.52-.02,8.02-6.52,14.5-14.53,14.51M191.26,32.28l-7.14-3.58v-7.01c0-1.15-.92-2.08-2.07-2.08s-2.07.93-2.08,2.08v8.29c0,.79.44,1.5,1.14,1.86l8.3,4.15c1.02.51,2.27.1,2.78-.93.51-1.02.1-2.26-.93-2.78M223.5,52.82c-5.73,0-10.37,4.64-10.38,10.37,0,5.72,4.64,10.37,10.36,10.37s10.37-4.64,10.38-10.36c.01-5.73-4.63-10.37-10.36-10.38M223.49,69.41c-3.44,0-6.22-2.79-6.22-6.22s2.79-6.22,6.23-6.22,6.22,2.79,6.21,6.23c0,3.43-2.79,6.22-6.22,6.21M182.03,52.79c-5.73.01-10.37,4.64-10.38,10.36-.01,5.73,4.63,10.38,10.36,10.38,5.73,0,10.37-4.63,10.38-10.36,0-5.73-4.64-10.37-10.36-10.38M182.01,69.38c-3.43,0-6.22-2.79-6.21-6.22,0-3.44,2.79-6.22,6.22-6.22,3.44.01,6.22,2.79,6.22,6.23s-2.79,6.22-6.23,6.21"/>
    <path class="cls-3" d="M182.05,15.47c-8.01,0-14.52,6.48-14.52,14.5-.01,8.02,6.48,14.52,14.5,14.53,8.01-.01,14.51-6.49,14.53-14.51,0-8.01-6.49-14.52-14.51-14.52M192.19,35.06c-.51,1.03-1.76,1.44-2.78.93l-8.3-4.15c-.7-.36-1.14-1.07-1.14-1.86v-8.29c0-1.15.93-2.08,2.08-2.08s2.07.93,2.07,2.08v7.01l7.14,3.58c1.03.52,1.44,1.76.93,2.78"/>
  </g>
</svg>